<svg width="74" height="58" viewBox="0 0 74 58" fill="none" xmlns="http://www.w3.org/2000/svg">
<path d="M15.3799 49.1339C15.0831 49.1339 14.4896 48.7602 14.1928 48.3866C13.896 48.0129 13.8959 47.2655 13.8959 46.8918C13.8959 46.1445 15.9735 25.4663 26.3615 14.2559C25.1743 13.8822 18.63 13.8822 17.146 13.8822C12.1004 13.8822 8.83561 21.4814 7.94521 25.9656C7.94521 26.713 7.35161 27.4603 6.46121 27.4603H2.30602C1.41562 27.4603 0.822021 26.713 0.822021 25.5919V4.29201C0.822021 3.17096 1.41562 2.4236 2.30602 2.4236H6.46121C7.35161 2.4236 7.94521 3.17096 7.94521 4.29201C10.6164 2.79728 15.3652 0.555183 20.4108 0.555183C22.7852 0.555183 24.8628 0.928872 26.9404 1.67624C30.7988 3.17096 32.2828 4.6657 33.47 5.78675C33.7668 6.16043 34.0636 6.16042 34.0636 6.16042L36.438 4.66569H43.8579C44.4515 4.66569 45.0451 5.03938 45.3419 5.78675C45.6387 6.53411 45.3419 7.28148 45.0451 7.65516C45.0451 7.65516 32.5796 22.2288 32.5796 47.2655C32.5796 48.3866 31.986 49.1339 31.0956 49.1339H15.3799Z" fill="#333333"/>
<path d="M73.2661 20.9519C73.2661 20.9519 72.8869 25.1113 71.8376 26.7774L71.8627 26.7342C71.3834 27.4212 70.8109 28.0392 70.1622 28.5708L70.1453 28.5841C69.6107 29.0515 69.0264 29.4957 68.4099 29.9002L68.3501 29.9367C67.8917 30.2163 67.2563 30.5836 66.4449 31.039C65.5864 31.5252 64.8579 32.2096 64.3213 33.0346L64.3059 33.0579C63.8393 33.6554 63.5431 34.3672 63.4485 35.1182L63.4469 35.1381C63.4408 35.5085 63.0714 39.6855 63.0714 39.6855C63.0714 40.1661 62.1987 40.1661 62.1987 40.1661H54.7038C54.5308 40.1545 54.3646 40.0951 54.2234 39.9947C54.0827 39.8943 53.9727 39.7568 53.9057 39.5976L53.9041 39.591C53.6934 39.2388 53.5808 35.2994 53.5767 34.8894V33.4888C53.6146 31.6707 54.3395 29.9336 55.6072 28.6239L55.6052 28.6256C55.6052 28.6256 58.3095 26.0821 59.9906 25.2889L60.0704 25.2557C61.0563 24.8631 61.949 24.271 62.6923 23.5169L62.6939 23.5153C63.2392 22.8488 63.5176 22.0051 63.4751 21.1466V21.1549C63.4475 20.6838 63.3011 20.2272 63.0499 19.827C62.7988 19.4267 62.4509 19.0957 62.0375 18.8641L62.0227 18.8575C61.0343 18.1852 59.8586 17.8379 58.6615 17.8646H58.6666C57.4674 17.8175 56.1856 17.8646 55.2706 18.7796C55.2706 18.7796 51.1134 24.5269 50.1511 25.8218L50.1096 25.8798C49.9981 26.0319 49.8528 26.156 49.685 26.2423C49.5167 26.3286 49.331 26.3747 49.1422 26.377C48.8613 26.368 48.5892 26.2807 48.3559 26.1251L48.361 26.1284L43.2409 22.2448C42.9856 22.0604 42.8127 21.7846 42.758 21.4756L42.7565 21.469C42.7043 21.1663 42.8317 20.857 42.9268 20.5847L43.0568 20.2278C46.906 9.41797 52.7638 8.78452 58.7766 8.78452C58.9475 8.78452 59.1178 8.78728 59.2877 8.7928H59.2631C61.0174 8.80298 62.7542 9.14151 64.3827 9.79067L64.288 9.75752C65.9456 10.3818 67.4947 11.2604 68.8796 12.3615L68.8463 12.335C70.1857 13.4047 71.2989 14.7281 72.1211 16.2286L72.1543 16.2966C72.9585 17.7171 73.2661 20.9519 73.2661 20.9519Z" fill="#333333"/>
<path d="M64.7381 51.5574C64.7381 54.9968 61.9453 57.7845 58.5002 57.7845C55.0551 57.7845 52.2628 54.9968 52.2628 51.5574C52.2628 48.1185 55.0551 45.3306 58.5002 45.3306C61.9453 45.3306 64.7381 48.1185 64.7381 51.5574Z" fill="#333333"/>
</svg>
