<svg width="487" height="486" viewBox="0 0 487 486" fill="none" xmlns="http://www.w3.org/2000/svg">
<path fill-rule="evenodd" clip-rule="evenodd" d="M5.92249 55.1515C5.92249 27.5372 28.3082 5.15149 55.9225 5.15149H431.773C459.387 5.15149 481.773 27.5373 481.773 55.1515V431.002C481.773 458.616 459.387 481.002 431.773 481.002H55.9225C28.3082 481.002 5.92249 458.616 5.92249 431.002V55.1515ZM92.611 28.0767L156.622 28.214C168.435 28.4887 178.6 31.0529 187.117 35.9063C195.725 40.6682 202.181 47.4448 206.485 56.236C210.789 64.9356 212.529 75.2836 211.704 87.28C210.972 97.4448 209.049 106.328 205.935 113.928C202.822 121.529 198.289 128.168 192.336 133.846C187.403 138.548 181.367 142.796 174.228 146.589L193.985 225.742V228.077H144.946L129.817 157.472H116.071L103.737 228.077H58.133L92.611 28.0767ZM140.001 120.659L122.538 120.451L132.171 65.3019L155.111 65.4393C159.873 65.8056 163.032 67.454 164.589 70.3844C166.146 73.2232 166.787 76.6572 166.512 80.6866C166.237 84.6243 165.825 88.2873 165.276 91.6756C164.726 96.7122 163.536 101.428 161.704 105.824C159.873 110.128 157.217 113.654 153.737 116.401C150.258 119.057 145.679 120.476 140.001 120.659ZM241.903 132.108C241.903 79.0276 268.528 28.0767 332.344 28.0767C396.161 28.0767 430.501 79.0276 430.501 132.108C430.501 185.189 387.665 228.077 332.344 228.077C277.024 228.077 241.903 185.189 241.903 132.108ZM321.373 206.487H342.902V183.43H321.373V206.487ZM342.902 166.423V158.8L342.886 158.791C342.886 149.346 348.971 143.382 355.699 136.788C364.014 128.637 373.312 119.525 373.312 101.685C373.312 78.6188 354.955 64.9355 335.191 64.9355C314.377 64.9355 302.316 79.0276 302.316 79.0276L314.56 96.0518C314.56 96.0518 323.305 87.8418 333.275 87.8418C342.894 87.8418 350.232 94.8789 350.232 104.057C350.232 113.271 344.194 119.211 337.642 125.657C329.869 133.303 321.373 141.661 321.373 157.04V166.423H342.902ZM138.978 402.5C139.601 399.027 139.646 395.91 139.112 393.149C138.577 390.388 137.509 387.984 135.906 385.936C134.392 383.798 132.388 381.839 129.894 380.058C127.49 378.277 124.818 376.629 121.879 375.115C115.378 371.998 109.278 368.525 103.578 364.696C97.8783 360.777 92.8466 356.369 88.4828 351.471C84.2081 346.573 80.9575 341.051 78.7311 334.906C76.5937 328.761 75.7477 321.726 76.193 313.8C76.7273 304.894 78.9983 296.968 83.0058 290.021C87.0134 282.986 92.2677 277.108 98.7689 272.388C105.27 267.579 112.528 263.972 120.543 261.568C128.558 259.074 136.707 257.916 144.989 258.094C156.923 258.273 166.942 261.033 175.046 266.377C183.15 271.72 189.251 278.934 193.347 288.018C197.444 297.101 199.359 307.254 199.091 318.475L154.875 318.609C154.964 314.957 154.875 311.217 154.608 307.387C154.34 303.558 153.227 300.352 151.268 297.769C149.398 295.098 146.058 293.717 141.249 293.628C137.42 293.539 134.035 294.474 131.097 296.433C128.158 298.393 125.753 300.975 123.883 304.181C122.102 307.298 120.9 310.638 120.276 314.2C119.742 317.228 119.964 319.989 120.944 322.483C121.924 324.976 123.393 327.247 125.352 329.295C127.312 331.344 129.493 333.169 131.898 334.772C134.392 336.375 136.752 337.8 138.978 339.047C146.014 342.253 152.337 345.86 157.947 349.868C163.558 353.875 168.322 358.417 172.241 363.493C176.248 368.48 179.187 374.18 181.057 380.592C183.017 386.915 183.729 394.129 183.195 402.233C182.571 411.317 180.434 419.376 176.783 426.412C173.131 433.358 168.322 439.236 162.355 444.045C156.389 448.765 149.576 452.328 141.917 454.732C134.258 457.048 126.02 458.161 117.204 458.072C107.496 457.805 98.1186 456.068 90.4597 452.862C82.8899 449.567 76.5223 444.98 71.357 439.103C66.1917 433.225 62.3178 426.323 59.7351 418.397C57.1525 410.382 55.9502 401.61 56.1283 392.081L101.013 392.214C100.746 396.133 100.657 399.918 100.746 403.569C100.835 407.22 101.414 410.471 102.482 413.321C103.551 416.17 105.377 418.441 107.959 420.133C110.631 421.737 115.111 422.538 120.009 422.538C124.017 422.538 127.312 421.647 129.894 419.866C132.477 417.996 134.481 415.547 135.906 412.519C137.42 409.402 138.444 406.062 138.978 402.5ZM270.401 455C271.939 456.538 275.016 458.077 276.554 458.077H358.039C362.654 458.077 365.731 455 365.731 450.384C365.731 347.307 430.347 287.307 430.347 287.307C431.885 285.769 433.424 282.692 431.885 279.615C430.347 276.538 427.27 275 424.193 275H385.731C384.193 275 382.654 275 381.116 276.538C379.578 276.538 373.424 281.154 373.424 281.154C373.424 281.154 371.885 281.154 370.347 279.615C370.104 279.433 369.858 279.248 369.61 279.061C363.566 274.514 355.711 268.603 336.501 262.692C325.731 259.615 314.962 258.077 302.654 258.077C283.208 258.077 280.092 259.863 274.081 263.309C272.008 264.497 269.59 265.883 266.039 267.461C266.039 262.846 262.962 259.769 258.347 259.769H236.808C232.193 259.769 229.116 262.846 229.116 267.461V355.154C229.116 359.769 232.193 362.846 236.808 362.846H258.347C262.962 362.846 266.039 359.769 266.039 356.692C270.654 338.23 299.324 309 325.478 309C333.17 309 339.324 309 345.478 310.538C291.631 356.692 268.862 445.769 268.862 448.846C268.862 450.384 268.862 453.461 270.401 455Z" fill="url(#paint0_linear_726_3188)"/>
<path d="M156.622 28.214L156.738 23.2154L156.685 23.2141L156.633 23.214L156.622 28.214ZM92.611 28.0767L92.6217 23.0767L88.4008 23.0676L87.6837 27.2272L92.611 28.0767ZM187.117 35.9063L184.641 40.2504L184.668 40.2661L184.696 40.2815L187.117 35.9063ZM206.485 56.236L201.994 58.4346L201.999 58.4439L202.003 58.4532L206.485 56.236ZM211.704 87.28L216.691 87.6394L216.692 87.631L216.693 87.6227L211.704 87.28ZM192.336 133.846L195.786 137.465L195.787 137.464L192.336 133.846ZM174.228 146.589L171.882 142.174L168.43 144.008L169.377 147.8L174.228 146.589ZM193.985 225.742H198.985V225.127L198.836 224.531L193.985 225.742ZM193.985 228.077V233.077H198.985V228.077H193.985ZM144.946 228.077L140.057 229.124L140.904 233.077H144.946V228.077ZM129.817 157.472L134.706 156.425L133.859 152.472H129.817V157.472ZM116.071 157.472V152.472H111.869L111.145 156.612L116.071 157.472ZM103.737 228.077V233.077H107.94L108.663 228.937L103.737 228.077ZM58.133 228.077L53.2057 227.227L52.1973 233.077H58.133V228.077ZM122.538 120.451L117.612 119.591L116.601 125.381L122.478 125.451L122.538 120.451ZM140.001 120.659L139.942 125.659L140.052 125.66L140.162 125.656L140.001 120.659ZM132.171 65.3019L132.201 60.302L127.974 60.2767L127.246 64.4415L132.171 65.3019ZM155.111 65.4393L155.494 60.454L155.318 60.4405L155.141 60.4394L155.111 65.4393ZM164.589 70.3844L160.173 72.7301L160.189 72.7594L160.205 72.7885L164.589 70.3844ZM166.512 80.6866L171.5 81.0345L171.501 81.0267L166.512 80.6866ZM165.276 91.6756L160.34 90.8752L160.319 91.0038L160.305 91.1333L165.276 91.6756ZM161.704 105.824L166.305 107.782L166.313 107.764L166.32 107.747L161.704 105.824ZM153.737 116.401L156.771 120.376L156.803 120.351L156.836 120.325L153.737 116.401ZM342.902 206.487V211.487H347.902V206.487H342.902ZM321.373 206.487H316.373V211.487H321.373V206.487ZM342.902 183.43H347.902V178.43H342.902V183.43ZM321.373 183.43V178.43H316.373V183.43H321.373ZM342.902 158.8H347.902V155.865L345.34 154.435L342.902 158.8ZM342.902 166.423V171.423H347.902V166.423H342.902ZM342.886 158.791H337.886V161.725L340.448 163.156L342.886 158.791ZM355.699 136.788L352.199 133.217L352.199 133.217L355.699 136.788ZM302.316 79.0276L298.518 75.7765L295.965 78.7594L298.257 81.9469L302.316 79.0276ZM314.56 96.0518L310.5 98.9711L313.827 103.597L317.982 99.6971L314.56 96.0518ZM337.642 125.657L341.149 129.221L341.149 129.221L337.642 125.657ZM321.373 166.423H316.373V171.423H321.373V166.423ZM139.112 393.149L144.021 392.199L144.021 392.199L139.112 393.149ZM138.978 402.5L134.057 401.617L134.044 401.688L134.033 401.759L138.978 402.5ZM135.906 385.936L131.825 388.826L131.894 388.923L131.968 389.017L135.906 385.936ZM129.894 380.058L126.918 384.076L126.953 384.101L126.988 384.127L129.894 380.058ZM121.879 375.115L124.169 370.67L124.105 370.638L124.041 370.607L121.879 375.115ZM103.578 364.696L100.745 368.816L100.767 368.831L100.79 368.846L103.578 364.696ZM88.4828 351.471L84.7157 354.758L84.7325 354.778L84.7495 354.797L88.4828 351.471ZM78.7311 334.906L74.0086 336.549L74.0192 336.579L74.0301 336.609L78.7311 334.906ZM76.193 313.8L71.2019 313.5L71.2014 313.51L71.2008 313.519L76.193 313.8ZM83.0058 290.021L87.3367 292.52L87.3436 292.508L87.3504 292.496L83.0058 290.021ZM98.7689 272.388L101.706 276.434L101.724 276.421L101.742 276.408L98.7689 272.388ZM120.543 261.568L121.98 266.357L122.004 266.35L122.029 266.342L120.543 261.568ZM144.989 258.094L144.882 263.093L144.898 263.094L144.915 263.094L144.989 258.094ZM199.091 318.475L199.107 323.475L203.974 323.46L204.09 318.594L199.091 318.475ZM154.875 318.609L149.876 318.487L149.751 323.624L154.89 323.609L154.875 318.609ZM154.608 307.387L159.595 307.039L159.595 307.039L154.608 307.387ZM151.268 297.769L147.172 300.637L147.227 300.715L147.284 300.791L151.268 297.769ZM141.249 293.628L141.133 298.627L141.145 298.627L141.156 298.627L141.249 293.628ZM131.097 296.433L128.323 292.273L128.323 292.273L131.097 296.433ZM123.883 304.181L119.564 301.662L119.553 301.681L119.542 301.701L123.883 304.181ZM120.276 314.2L125.2 315.069L125.201 315.062L120.276 314.2ZM120.944 322.483L125.598 320.654L125.598 320.654L120.944 322.483ZM131.898 334.772L129.125 338.933L129.159 338.956L129.194 338.978L131.898 334.772ZM138.978 339.047L136.535 343.41L136.716 343.511L136.905 343.597L138.978 339.047ZM157.947 349.868L155.041 353.936L155.041 353.936L157.947 349.868ZM172.241 363.493L168.283 366.549L168.313 366.587L168.343 366.625L172.241 363.493ZM181.057 380.592L176.257 381.992L176.269 382.032L176.281 382.072L181.057 380.592ZM183.195 402.233L188.183 402.575L188.184 402.562L183.195 402.233ZM176.783 426.412L181.209 428.738L181.215 428.727L181.221 428.715L176.783 426.412ZM162.355 444.045L165.458 447.967L165.475 447.953L165.493 447.938L162.355 444.045ZM141.917 454.732L143.364 459.518L143.389 459.51L143.415 459.503L141.917 454.732ZM117.204 458.072L117.066 463.07L117.11 463.071L117.153 463.071L117.204 458.072ZM90.4597 452.862L88.4641 457.446L88.4965 457.46L88.5291 457.474L90.4597 452.862ZM59.7351 418.397L54.9761 419.93L54.9786 419.938L54.9811 419.946L59.7351 418.397ZM56.1283 392.081L56.1432 387.081L51.2212 387.066L51.1292 391.987L56.1283 392.081ZM101.013 392.214L106.001 392.554L106.364 387.23L101.028 387.214L101.013 392.214ZM102.482 413.321L97.8008 415.076L97.8008 415.076L102.482 413.321ZM107.959 420.133L105.219 424.316L105.302 424.37L105.387 424.421L107.959 420.133ZM129.894 419.866L132.733 423.982L132.78 423.95L132.827 423.916L129.894 419.866ZM135.906 412.519L131.408 410.335L131.395 410.362L131.382 410.39L135.906 412.519ZM270.401 455L273.936 451.464L273.936 451.464L270.401 455ZM430.347 287.307L433.749 290.971L433.817 290.908L433.882 290.843L430.347 287.307ZM431.885 279.615L427.413 281.851L427.413 281.851L431.885 279.615ZM381.116 276.538V281.538H383.187L384.651 280.074L381.116 276.538ZM373.424 281.154V286.154H375.09L376.424 285.154L373.424 281.154ZM370.347 279.615L373.882 276.08L373.631 275.828L373.347 275.615L370.347 279.615ZM369.61 279.061L372.616 275.066L372.616 275.066L369.61 279.061ZM336.501 262.692L337.971 257.913L337.923 257.898L337.874 257.884L336.501 262.692ZM274.081 263.309L276.567 267.647L276.567 267.647L274.081 263.309ZM266.039 267.461H261.039V275.155L268.07 272.03L266.039 267.461ZM266.039 356.692L261.188 355.479L261.039 356.076V356.692H266.039ZM345.478 310.538L348.731 314.335L356.081 308.035L346.69 305.688L345.478 310.538ZM55.9225 0.151489C25.5468 0.151489 0.922485 24.7758 0.922485 55.1515H10.9225C10.9225 30.2987 31.0697 10.1515 55.9225 10.1515V0.151489ZM431.773 0.151489H55.9225V10.1515H431.773V0.151489ZM486.773 55.1515C486.773 24.7758 462.149 0.151489 431.773 0.151489V10.1515C456.626 10.1515 476.773 30.2987 476.773 55.1515H486.773ZM486.773 431.002V55.1515H476.773V431.002H486.773ZM431.773 486.002C462.148 486.002 486.773 461.378 486.773 431.002H476.773C476.773 455.855 456.626 476.002 431.773 476.002V486.002ZM55.9225 486.002H431.773V476.002H55.9225V486.002ZM0.922485 431.002C0.922485 461.377 25.5468 486.002 55.9225 486.002V476.002C31.0697 476.002 10.9225 455.855 10.9225 431.002H0.922485ZM0.922485 55.1515V431.002H10.9225V55.1515H0.922485ZM156.633 23.214L92.6217 23.0767L92.6003 33.0766L156.611 33.214L156.633 23.214ZM189.592 31.5622C180.222 26.2221 169.211 23.5054 156.738 23.2154L156.506 33.2127C167.66 33.4721 176.978 35.8836 184.641 40.2504L189.592 31.5622ZM210.975 54.0374C206.218 44.3207 199.037 36.7866 189.537 31.5312L184.696 40.2815C192.412 44.5499 198.143 50.5689 201.994 58.4346L210.975 54.0374ZM216.693 87.6227C217.563 74.9524 215.746 63.6808 210.966 54.0188L202.003 58.4532C205.831 66.1905 207.494 75.6148 206.716 86.9373L216.693 87.6227ZM210.562 115.824C213.918 107.632 215.93 98.2103 216.691 87.6394L206.717 86.9205C206.014 96.6793 204.18 105.023 201.308 112.033L210.562 115.824ZM195.787 137.464C202.248 131.302 207.182 124.076 210.562 115.824L201.308 112.033C198.462 118.982 194.33 125.035 188.885 130.228L195.787 137.464ZM176.574 151.004C184.043 147.036 190.468 142.534 195.786 137.465L188.887 130.227C184.338 134.562 178.691 138.555 171.882 142.174L176.574 151.004ZM198.836 224.531L179.079 145.378L169.377 147.8L189.133 226.952L198.836 224.531ZM198.985 228.077V225.742H188.985V228.077H198.985ZM144.946 233.077H193.985V223.077H144.946V233.077ZM124.928 158.52L140.057 229.124L149.835 227.029L134.706 156.425L124.928 158.52ZM116.071 162.472H129.817V152.472H116.071V162.472ZM108.663 228.937L120.996 158.333L111.145 156.612L98.812 227.216L108.663 228.937ZM58.133 233.077H103.737V223.077H58.133V233.077ZM87.6837 27.2272L53.2057 227.227L63.0603 228.926L97.5383 28.9261L87.6837 27.2272ZM122.478 125.451L139.942 125.659L140.061 115.659L122.597 115.452L122.478 125.451ZM127.246 64.4415L117.612 119.591L127.463 121.312L137.097 66.1623L127.246 64.4415ZM155.141 60.4394L132.201 60.302L132.142 70.3018L155.081 70.4392L155.141 60.4394ZM169.005 68.0386C166.324 62.9931 161.149 60.889 155.494 60.454L154.728 70.4246C158.597 70.7222 159.74 71.9148 160.173 72.7301L169.005 68.0386ZM171.501 81.0267C171.824 76.2792 171.091 71.8426 168.973 67.9802L160.205 72.7885C161.2 74.6037 161.749 77.0353 161.524 80.3464L171.501 81.0267ZM170.211 92.4759C170.788 88.9175 171.216 85.1019 171.5 81.0345L161.524 80.3386C161.259 84.1467 160.862 87.6571 160.34 90.8752L170.211 92.4759ZM166.32 107.747C168.346 102.883 169.648 97.699 170.246 92.2178L160.305 91.1333C159.804 95.7254 158.725 99.9735 157.089 103.901L166.32 107.747ZM156.836 120.325C161.01 117.03 164.164 112.813 166.305 107.782L157.104 103.866C155.582 107.443 153.425 110.277 150.639 112.476L156.836 120.325ZM140.162 125.656C146.572 125.45 152.248 123.827 156.771 120.376L150.704 112.426C148.267 114.286 144.786 115.502 139.84 115.662L140.162 125.656ZM332.344 23.0767C298.923 23.0767 274.814 36.5065 259.203 57.1736C243.734 77.6521 236.903 104.822 236.903 132.108H246.903C246.903 106.314 253.384 81.468 267.182 63.2009C280.838 45.1223 301.949 33.0767 332.344 33.0767V23.0767ZM435.501 132.108C435.501 104.537 426.589 77.3315 409.154 56.9381C391.638 36.4497 365.709 23.0767 332.344 23.0767V33.0767C362.797 33.0767 385.945 45.179 401.553 63.4363C417.243 81.7886 425.501 106.599 425.501 132.108H435.501ZM332.344 233.077C390.354 233.077 435.501 188.022 435.501 132.108H425.501C425.501 182.356 384.976 223.077 332.344 223.077V233.077ZM236.903 132.108C236.903 187.465 273.801 233.077 332.344 233.077V223.077C280.247 223.077 246.903 182.913 246.903 132.108H236.903ZM342.902 201.487H321.373V211.487H342.902V201.487ZM337.902 183.43V206.487H347.902V183.43H337.902ZM321.373 188.43H342.902V178.43H321.373V188.43ZM326.373 206.487V183.43H316.373V206.487H326.373ZM337.902 158.8V166.423H347.902V158.8H337.902ZM340.448 163.156L340.464 163.165L345.34 154.435L345.325 154.426L340.448 163.156ZM352.199 133.217C345.757 139.531 337.886 146.922 337.886 158.791H347.886C347.886 151.77 352.186 147.232 359.199 140.359L352.199 133.217ZM368.312 101.685C368.312 117.298 360.458 125.122 352.199 133.217L359.199 140.359C367.571 132.153 378.312 121.751 378.312 101.685H368.312ZM335.191 69.9355C352.741 69.9355 368.312 81.8975 368.312 101.685H378.312C378.312 75.3402 357.169 59.9355 335.191 59.9355V69.9355ZM302.316 79.0276C306.115 82.2787 306.114 82.2802 306.113 82.2817C306.112 82.2821 306.111 82.2835 306.11 82.2843C306.109 82.286 306.108 82.2875 306.106 82.2888C306.104 82.2913 306.103 82.293 306.102 82.2939C306.1 82.2957 306.102 82.2942 306.106 82.2895C306.114 82.2802 306.133 82.2583 306.164 82.2245C306.225 82.1569 306.331 82.0423 306.48 81.8872C306.778 81.5768 307.249 81.1063 307.886 80.5284C309.163 79.37 311.087 77.7965 313.605 76.2173C318.642 73.0581 325.95 69.9355 335.191 69.9355V59.9355C323.618 59.9355 314.489 63.8588 308.292 67.7458C305.193 69.6895 302.801 71.6391 301.166 73.1229C300.347 73.8662 299.713 74.4966 299.271 74.9569C299.049 75.1871 298.875 75.3753 298.75 75.5141C298.687 75.5835 298.636 75.6407 298.597 75.6847C298.578 75.7067 298.562 75.7254 298.548 75.7408C298.542 75.7484 298.536 75.7552 298.531 75.7612C298.528 75.7642 298.526 75.7669 298.524 75.7695C298.523 75.7708 298.521 75.7725 298.52 75.7731C298.519 75.7748 298.518 75.7765 302.316 79.0276ZM318.619 93.1325L306.376 76.1082L298.257 81.9469L310.5 98.9711L318.619 93.1325ZM333.275 82.8418C326.995 82.8418 321.397 85.3926 317.613 87.6555C315.674 88.8148 314.091 89.9711 312.985 90.8435C312.43 91.2814 311.989 91.6526 311.677 91.9233C311.521 92.0588 311.397 92.1695 311.306 92.2513C311.261 92.2922 311.224 92.3259 311.196 92.352C311.182 92.365 311.17 92.3761 311.16 92.3852C311.155 92.3897 311.151 92.3938 311.147 92.3973C311.145 92.3991 311.144 92.4008 311.142 92.4023C311.141 92.403 311.14 92.4041 311.14 92.4045C311.139 92.4055 311.138 92.4065 314.56 96.0518C317.982 99.6971 317.981 99.698 317.98 99.6989C317.98 99.6992 317.979 99.7 317.978 99.7006C317.977 99.7016 317.976 99.7025 317.975 99.7033C317.974 99.7048 317.973 99.7059 317.972 99.7065C317.971 99.7077 317.971 99.707 317.974 99.7045C317.98 99.6995 317.993 99.6871 318.014 99.6679C318.057 99.6294 318.13 99.5638 318.233 99.4748C318.438 99.2965 318.758 99.0262 319.179 98.6945C320.024 98.0275 321.251 97.1313 322.745 96.2381C325.825 94.396 329.585 92.8418 333.275 92.8418V82.8418ZM355.232 104.057C355.232 91.913 345.447 82.8418 333.275 82.8418V92.8418C340.342 92.8418 345.232 97.8448 345.232 104.057H355.232ZM341.149 129.221C347.403 123.068 355.232 115.696 355.232 104.057H345.232C345.232 110.846 340.986 115.353 334.136 122.092L341.149 129.221ZM326.373 157.04C326.373 143.935 333.35 136.893 341.149 129.221L334.136 122.092C326.389 129.713 316.373 139.388 316.373 157.04H326.373ZM326.373 166.423V157.04H316.373V166.423H326.373ZM342.902 161.423H321.373V171.423H342.902V161.423ZM134.203 394.099C134.594 396.123 134.598 398.602 134.057 401.617L143.899 403.384C144.605 399.452 144.698 395.697 144.021 392.199L134.203 394.099ZM131.968 389.017C133.044 390.392 133.806 392.052 134.203 394.099L144.021 392.199C143.348 388.725 141.973 385.576 139.843 382.854L131.968 389.017ZM126.988 384.127C129.103 385.637 130.684 387.214 131.825 388.826L139.986 383.046C138.099 380.383 135.673 378.041 132.8 375.989L126.988 384.127ZM119.589 379.56C122.313 380.963 124.752 382.471 126.918 384.076L132.87 376.04C130.228 374.083 127.323 372.295 124.169 370.67L119.589 379.56ZM100.79 368.846C106.699 372.816 113.01 376.408 119.717 379.624L124.041 370.607C117.746 367.589 111.856 364.234 106.366 360.545L100.79 368.846ZM84.7495 354.797C89.3946 360.011 94.7326 364.682 100.745 368.816L106.411 360.575C101.024 356.872 96.2986 352.727 92.2161 348.145L84.7495 354.797ZM74.0301 336.609C76.466 343.332 80.0322 349.392 84.7157 354.758L92.2499 348.183C88.384 343.753 85.449 338.77 83.432 333.203L74.0301 336.609ZM71.2008 313.519C70.7267 321.958 71.6149 329.667 74.0086 336.549L83.4536 333.263C81.5725 327.855 80.7686 321.493 81.1851 314.08L71.2008 313.519ZM78.6749 287.523C74.2378 295.214 71.7774 303.908 71.2019 313.5L81.184 314.099C81.6772 305.879 83.7587 298.722 87.3367 292.52L78.6749 287.523ZM95.8313 268.342C88.7501 273.483 83.0179 279.898 78.6612 287.547L87.3504 292.496C91.0089 286.074 95.7853 280.733 101.706 276.434L95.8313 268.342ZM119.107 256.779C110.558 259.343 102.777 263.204 95.7954 268.368L101.742 276.408C107.763 271.954 114.498 268.601 121.98 266.357L119.107 256.779ZM145.097 253.096C136.268 252.906 127.581 254.142 119.058 256.793L122.029 266.342C129.535 264.007 137.146 262.927 144.882 263.093L145.097 253.096ZM177.798 262.202C168.733 256.226 157.731 253.284 145.064 253.095L144.915 263.094C156.115 263.261 165.15 265.841 172.294 270.551L177.798 262.202ZM197.905 285.962C193.43 276.039 186.715 268.081 177.798 262.202L172.294 270.551C179.586 275.359 185.071 281.828 188.789 290.073L197.905 285.962ZM204.09 318.594C204.373 306.719 202.347 295.81 197.905 285.962L188.789 290.073C192.541 298.392 194.344 307.788 194.093 318.356L204.09 318.594ZM154.89 323.609L199.107 323.475L199.076 313.475L154.86 313.609L154.89 323.609ZM149.62 307.735C149.876 311.416 149.961 315 149.876 318.487L159.873 318.731C159.966 314.915 159.873 311.017 159.595 307.039L149.62 307.735ZM147.284 300.791C148.555 302.466 149.408 304.694 149.62 307.735L159.595 307.039C159.273 302.422 157.899 298.238 155.251 294.747L147.284 300.791ZM141.156 298.627C145.163 298.702 146.595 299.813 147.172 300.637L155.364 294.902C152.2 290.382 146.953 288.733 141.342 288.629L141.156 298.627ZM133.87 300.594C135.882 299.253 138.239 298.56 141.133 298.627L141.365 288.63C136.6 288.519 132.189 289.696 128.323 292.273L133.87 300.594ZM128.202 306.701C129.708 304.118 131.597 302.109 133.87 300.594L128.323 292.273C124.719 294.676 121.798 297.833 119.564 301.662L128.202 306.701ZM125.201 315.062C125.726 312.065 126.732 309.274 128.224 306.662L119.542 301.701C117.472 305.323 116.073 309.211 115.351 313.338L125.201 315.062ZM125.598 320.654C125.002 319.138 124.802 317.327 125.2 315.069L115.352 313.331C114.682 317.13 114.927 320.84 116.29 324.311L125.598 320.654ZM128.966 325.839C127.429 324.233 126.326 322.508 125.598 320.654L116.29 324.311C117.521 327.444 119.357 330.261 121.739 332.752L128.966 325.839ZM134.672 330.612C132.566 329.208 130.667 327.618 128.966 325.839L121.739 332.752C123.957 335.07 126.421 337.13 129.125 338.933L134.672 330.612ZM141.421 334.685C139.296 333.495 137.023 332.123 134.602 330.567L129.194 338.978C131.76 340.628 134.207 342.106 136.535 343.41L141.421 334.685ZM160.853 345.799C154.952 341.584 148.345 337.821 141.051 334.497L136.905 343.597C143.682 346.686 149.721 350.136 155.041 353.936L160.853 345.799ZM176.199 360.438C171.96 354.946 166.832 350.07 160.853 345.799L155.041 353.936C160.283 357.681 164.685 361.888 168.283 366.549L176.199 360.438ZM185.857 379.192C183.811 372.177 180.576 365.883 176.138 360.361L168.343 366.625C171.921 371.078 174.563 376.183 176.257 381.992L185.857 379.192ZM188.184 402.562C188.75 393.981 188.01 386.136 185.833 379.112L176.281 382.072C178.024 387.694 178.709 394.277 178.206 401.904L188.184 402.562ZM181.221 428.715C185.232 420.987 187.52 412.242 188.183 402.575L178.207 401.891C177.623 410.391 175.636 417.766 172.345 424.109L181.221 428.715ZM165.493 447.938C172.005 442.69 177.247 436.275 181.209 428.738L172.357 424.086C169.016 430.442 164.64 435.782 159.218 440.152L165.493 447.938ZM143.415 459.503C151.623 456.925 158.986 453.086 165.458 447.967L159.253 440.124C153.791 444.445 147.529 447.73 140.419 449.962L143.415 459.503ZM117.153 463.071C126.426 463.165 135.173 461.995 143.364 459.518L140.47 449.946C133.343 452.101 125.615 453.156 117.254 453.072L117.153 463.071ZM88.5291 457.474C96.8862 460.972 106.9 462.79 117.066 463.07L117.341 453.074C108.093 452.819 99.3511 451.163 92.3904 448.25L88.5291 457.474ZM67.6012 442.403C73.2784 448.863 80.2583 453.874 88.4641 457.446L92.4554 448.277C85.5215 445.259 79.7663 441.097 75.1129 435.802L67.6012 442.403ZM54.9811 419.946C57.7602 428.475 61.9589 435.983 67.6012 442.403L75.1129 435.802C70.4246 430.467 66.8754 424.171 64.4891 416.848L54.9811 419.946ZM51.1292 391.987C50.9421 401.996 52.2035 411.326 54.9761 419.93L64.4942 416.863C62.1015 409.438 60.9583 401.223 61.1274 392.174L51.1292 391.987ZM101.028 387.214L56.1432 387.081L56.1134 397.081L100.998 397.214L101.028 387.214ZM105.744 403.447C105.659 399.961 105.744 396.33 106.001 392.554L96.0246 391.874C95.7477 395.935 95.6542 399.874 95.7473 403.691L105.744 403.447ZM107.164 411.565C106.326 409.331 105.822 406.648 105.744 403.447L95.7473 403.691C95.8473 407.792 96.5012 411.611 97.8008 415.076L107.164 411.565ZM110.7 415.951C108.992 414.832 107.854 413.405 107.164 411.565L97.8008 415.076C99.2482 418.936 101.762 422.051 105.219 424.316L110.7 415.951ZM120.009 417.538C115.397 417.538 112.027 416.743 110.532 415.846L105.387 424.421C109.235 426.73 114.825 427.538 120.009 427.538V417.538ZM127.056 415.75C125.512 416.815 123.283 417.538 120.009 417.538V427.538C124.75 427.538 129.111 426.48 132.733 423.982L127.056 415.75ZM131.382 410.39C130.298 412.693 128.826 414.467 126.962 415.817L132.827 423.916C136.128 421.526 138.663 418.401 140.43 414.648L131.382 410.39ZM134.033 401.759C133.571 404.84 132.692 407.691 131.408 410.335L140.403 414.704C142.147 411.113 143.316 407.285 143.923 403.242L134.033 401.759ZM276.554 453.077C276.899 453.077 276.973 453.142 276.676 453.048C276.44 452.972 276.105 452.839 275.714 452.643C274.87 452.221 274.211 451.739 273.936 451.464L266.865 458.535C268.129 459.799 269.777 460.855 271.241 461.587C272.548 462.24 274.572 463.077 276.554 463.077V453.077ZM358.039 453.077H276.554V463.077H358.039V453.077ZM360.731 450.384C360.731 451.556 360.363 452.143 360.08 452.426C359.798 452.708 359.211 453.077 358.039 453.077V463.077C361.483 463.077 364.741 461.907 367.152 459.497C369.562 457.087 370.731 453.828 370.731 450.384H360.731ZM430.347 287.307C426.944 283.643 426.943 283.645 426.941 283.647C426.94 283.648 426.937 283.65 426.935 283.652C426.931 283.656 426.926 283.66 426.92 283.666C426.908 283.677 426.893 283.692 426.873 283.71C426.834 283.747 426.779 283.799 426.709 283.865C426.57 283.998 426.372 284.189 426.118 284.438C425.611 284.937 424.881 285.667 423.962 286.626C422.123 288.542 419.524 291.373 416.417 295.083C410.205 302.503 401.955 313.457 393.713 327.686C377.227 356.143 360.731 397.771 360.731 450.384H370.731C370.731 399.921 386.544 360.01 402.366 332.698C410.277 319.042 418.18 308.555 424.084 301.503C427.035 297.978 429.484 295.315 431.179 293.548C432.026 292.665 432.685 292.005 433.124 291.574C433.343 291.359 433.508 291.201 433.613 291.1C433.666 291.05 433.704 291.014 433.727 290.992C433.738 290.981 433.746 290.974 433.75 290.971C433.751 290.969 433.752 290.968 433.752 290.968C433.752 290.968 433.751 290.969 433.751 290.969C433.75 290.97 433.749 290.971 430.347 287.307ZM427.413 281.851C427.536 282.097 427.561 282.32 427.462 282.665C427.338 283.098 427.054 283.529 426.811 283.772L433.882 290.843C436.206 288.519 439.254 283.172 436.357 277.379L427.413 281.851ZM424.193 280C425.653 280 426.839 280.703 427.413 281.851L436.357 277.379C433.855 272.374 428.886 270 424.193 270V280ZM385.731 280H424.193V270H385.731V280ZM384.651 280.074C384.736 279.989 384.76 279.985 384.721 280.007C384.705 280.016 384.686 280.025 384.666 280.033C384.647 280.04 384.635 280.043 384.636 280.043C384.642 280.041 384.708 280.025 384.889 280.014C385.092 280.001 385.321 280 385.731 280V270C384.119 270 380.673 269.91 377.58 273.003L384.651 280.074ZM373.424 281.154C376.424 285.154 376.423 285.154 376.423 285.154C376.423 285.154 376.423 285.154 376.423 285.154C376.423 285.154 376.423 285.154 376.423 285.154C376.423 285.154 376.424 285.154 376.424 285.153C376.426 285.152 376.429 285.15 376.434 285.146C376.443 285.139 376.457 285.128 376.477 285.114C376.517 285.084 376.578 285.039 376.657 284.981C376.816 284.864 377.047 284.694 377.331 284.49C377.902 284.079 378.667 283.539 379.466 283.006C380.283 282.462 381.056 281.978 381.659 281.649C381.965 281.482 382.14 281.403 382.201 281.379C382.404 281.298 381.926 281.538 381.116 281.538V271.538C379.921 271.538 378.915 271.923 378.487 272.094C377.916 272.322 377.358 272.604 376.871 272.87C375.888 273.406 374.833 274.076 373.919 274.686C372.988 275.307 372.119 275.92 371.488 276.375C371.17 276.603 370.909 276.794 370.725 276.93C370.633 276.998 370.56 277.052 370.509 277.09C370.484 277.109 370.463 277.124 370.449 277.135C370.442 277.14 370.436 277.144 370.432 277.147C370.43 277.149 370.428 277.15 370.427 277.151C370.426 277.152 370.425 277.152 370.425 277.153C370.425 277.153 370.424 277.153 370.424 277.153C370.424 277.153 370.424 277.154 373.424 281.154ZM366.811 283.151C368.191 284.531 369.656 285.296 370.881 285.705C371.485 285.906 372.021 286.018 372.452 286.079C372.668 286.11 372.859 286.129 373.022 286.14C373.103 286.145 373.178 286.148 373.245 286.151C373.278 286.152 373.31 286.152 373.34 286.153C373.355 286.153 373.369 286.153 373.383 286.153C373.39 286.153 373.397 286.154 373.404 286.154C373.407 286.154 373.411 286.154 373.414 286.154C373.415 286.154 373.418 286.154 373.419 286.154C373.421 286.154 373.424 286.154 373.424 281.154C373.424 276.154 373.426 276.154 373.429 276.154C373.429 276.154 373.432 276.154 373.433 276.154C373.437 276.154 373.44 276.154 373.443 276.154C373.449 276.154 373.456 276.154 373.462 276.154C373.474 276.154 373.487 276.154 373.499 276.154C373.522 276.155 373.545 276.155 373.567 276.156C373.611 276.157 373.651 276.159 373.687 276.162C373.76 276.166 373.819 276.173 373.866 276.18C373.961 276.193 374.016 276.209 374.043 276.218C374.115 276.242 374.041 276.238 373.882 276.08L366.811 283.151ZM366.603 283.056C366.851 283.243 367.1 283.43 367.347 283.615L373.347 275.615C373.107 275.436 372.865 275.253 372.616 275.066L366.603 283.056ZM335.03 267.471C353.529 273.163 360.869 278.742 366.603 283.056L372.616 275.066C366.263 270.285 357.892 264.043 337.971 257.913L335.03 267.471ZM302.654 263.077C314.512 263.077 324.818 264.554 335.127 267.5L337.874 257.884C326.645 254.676 315.413 253.077 302.654 253.077V263.077ZM276.567 267.647C279.519 265.954 281.242 264.984 284.41 264.282C287.81 263.529 292.994 263.077 302.654 263.077V253.077C292.868 253.077 286.771 253.517 282.248 254.519C277.494 255.572 274.654 257.217 271.594 258.971L276.567 267.647ZM268.07 272.03C271.865 270.343 274.466 268.851 276.567 267.647L271.594 258.971C269.549 260.143 267.314 261.423 264.008 262.892L268.07 272.03ZM258.347 264.769C259.518 264.769 260.106 265.138 260.388 265.42C260.67 265.702 261.039 266.29 261.039 267.461H271.039C271.039 264.017 269.869 260.759 267.459 258.349C265.049 255.939 261.791 254.769 258.347 254.769V264.769ZM236.808 264.769H258.347V254.769H236.808V264.769ZM234.116 267.461C234.116 266.29 234.485 265.702 234.767 265.42C235.049 265.138 235.637 264.769 236.808 264.769V254.769C233.364 254.769 230.106 255.939 227.696 258.349C225.286 260.759 224.116 264.017 224.116 267.461H234.116ZM234.116 355.154V267.461H224.116V355.154H234.116ZM236.808 357.846C235.637 357.846 235.049 357.477 234.767 357.195C234.485 356.913 234.116 356.325 234.116 355.154H224.116C224.116 358.598 225.286 361.856 227.696 364.266C230.106 366.676 233.364 367.846 236.808 367.846V357.846ZM258.347 357.846H236.808V367.846H258.347V357.846ZM261.039 356.692C261.039 356.54 261.095 356.762 260.67 357.127C260.281 357.459 259.53 357.846 258.347 357.846V367.846C264.973 367.846 271.039 363.226 271.039 356.692H261.039ZM325.478 304C310.678 304 295.837 312.165 284.393 322.156C272.974 332.125 263.84 344.874 261.188 355.479L270.89 357.905C272.854 350.048 280.361 338.951 290.97 329.689C301.552 320.45 314.123 314 325.478 314V304ZM346.69 305.688C339.832 303.973 333.04 304 325.478 304V314C333.3 314 338.815 314.027 344.265 315.389L346.69 305.688ZM273.862 448.846C273.862 449.234 273.806 449.45 273.857 449.156C273.885 448.991 273.937 448.726 274.018 448.349C274.18 447.6 274.434 446.53 274.787 445.162C275.492 442.432 276.567 438.601 278.033 433.922C280.963 424.561 285.431 411.869 291.559 397.848C303.864 369.695 322.649 336.691 348.731 314.335L342.224 306.742C314.46 330.539 294.937 365.15 282.396 393.843C276.101 408.246 271.511 421.284 268.49 430.934C266.979 435.759 265.855 439.753 265.104 442.663C264.73 444.115 264.442 445.32 264.244 446.237C264.145 446.692 264.062 447.107 264.001 447.462C263.962 447.689 263.862 448.266 263.862 448.846H273.862ZM273.936 451.464C274.138 451.666 274.175 451.8 274.139 451.712C274.103 451.625 274.041 451.43 273.986 451.101C273.871 450.409 273.862 449.644 273.862 448.846H263.862C263.862 449.586 263.853 451.129 264.122 452.745C264.373 454.246 264.987 456.658 266.865 458.535L273.936 451.464Z" fill="black"/>
<defs>
<linearGradient id="paint0_linear_726_3188" x1="243.848" y1="5.15149" x2="243.848" y2="481.002" gradientUnits="userSpaceOnUse">
<stop stop-color="#5C5C5C"/>
<stop offset="1" stop-color="#111112"/>
</linearGradient>
</defs>
</svg>
